<svg xmlns="http://www.w3.org/2000/svg" viewBox="0 0 1024 1024" xml:space="preserve">
    <path fill="#fff" d="M610.35 405.3c-9.14-.9-15.98-5.54-22.68-10.62-13.94-10.56-27.96-21.02-41.97-31.5-1.43-1.07-2.98-1.98-4.55-3.01-1.36 1.94-.78 3.82-.79 5.56-.06 14.16-.21 28.33 0 42.5.67 42.89-29.84 74.52-67.79 82.13a100 100 0 0 1-19.82 1.98c-50.32-.05-100.65.08-150.98-.08-25.24-.08-47.3-8.43-65.16-26.71a72 72 0 0 1-17.16-27.84c-1.27-3.83-3.16-6.09-7.71-7.06-17.73-3.77-28.07-17.25-28.09-35.54v-25.5c.02-16.74 9.74-29.95 25.91-34.23 4.46-1.18 5.32-3.29 5.14-7.3-.83-18.7 2.7-36.56 12.16-52.79 16.04-27.52 40.15-43.55 71.73-47.58 20.21-2.58 40.6-.69 60.9-.93 4.74-.05 6.53-1.32 6.28-6.2a231 231 0 0 1 0-21.5c.17-4.07-1.28-6.13-4.94-8.03-25.03-13-28-48.13-5.61-64.64 17.98-13.27 42.34-8.76 54.58 10.09 11.85 18.25 5.66 43.76-13.7 53.88-5.5 2.88-7.32 6.08-6.87 11.95.5 6.46.29 13 .06 19.48-.13 3.73 1.21 4.94 4.9 4.9 15.33-.14 30.67.13 46-.08 31.7-.42 58.16 10.75 78.89 34.99.53.62 1.18 1.13 1.74 1.67 2.43-.11 3.52-2 4.93-3.3 21.87-20.28 43.77-40.52 65.5-60.96 6.17-5.8 12.98-8.5 21.56-8.47 73.5.18 146.99.34 220.48-.07 18.41-.1 35.54 9.75 35.74 34.67q.59 73.5.05 146.98c-.14 20-14.38 33.19-34.3 33.2-74.66.01-149.31-.02-224.43-.04m-132.7-146.44c-9.84-4.85-20.17-7.57-31.21-7.56q-68.25.06-136.48-.01c-4.35 0-8.62.35-12.9 1.14-33.88 6.24-57.6 34.54-57.71 69.1-.1 30.33 0 60.66-.09 90.99a47 47 0 0 0 4.8 21.21c10.8 21.76 29.08 33.27 52.73 33.66 51.3.85 102.64.28 153.97.29 5.32 0 10.6-.1 15.9-.99 27.12-4.55 49.51-28.2 49.12-55.89-.43-29.65-.17-59.32-.09-88.98.08-28.4-13.14-48.77-38.04-62.96m368 72.64v-105c0-9.19-3.83-13.08-13.04-13.08q-106.74-.02-213.5-.02c-5.55 0-10.31 1.68-14.47 5.6-10.2 9.59-20.6 18.95-30.88 28.45a11169 11169 0 0 0-38.11 35.36c-2.97 2.76-1.76 9.55 1.8 10.7a10.1 10.1 0 0 0 11.65-4.4c5.07-7.96 13.57-11.5 22.37-9.32 8.63 2.14 14.84 10.04 15.6 19.87.67 8.39-4.96 17.23-13.1 20.59-8.25 3.4-16.85 1.32-22.8-6.22-2.67-3.38-5.86-3.03-8.96-2.37-3.22.68-1.64 3.85-1.86 5.97-.2 1.98.22 4.03-.07 5.99-.66 4.55 1.4 7.27 4.98 9.9 18.8 13.8 37.63 27.58 56.02 41.92 6.77 5.28 13.85 7.25 22.14 7.19q54.47-.43 108.95-.47c27.65-.02 55.31.27 82.97.4 6.5.02 13 .2 19.47-.2 8-.5 10.8-3.8 10.83-11.86.04-12.67.01-25.33.01-39m-24.34 236.34c12.89 22.73 9.69 55.74-8.5 71.33-5.22 4.47-11.16 7.73-17.95 11.12l37.66 65.6c-1.34 1.92-2.79 1.48-4.04 1.48-9.5.04-19-.09-28.5.07-3.07.06-4.79-1.07-6.3-3.73-10.4-18.23-21.05-36.31-31.35-54.6-2.31-4.08-4.83-6.26-9.76-5.8-4.8.43-9.66.08-14.5.09-6.72.01-6.73.02-6.74 6.53-.01 17.17-.12 34.33.07 51.5.05 4.38-1.01 6.3-5.82 6.06-7.65-.38-15.33-.32-22.99-.03-4.47.18-6.1-1.15-6.03-5.85.25-17 .1-34 .1-51V549.13c0-7.49.02-7.5 7.7-7.5 22.67.01 45.35-.55 67.99.2 20.06.68 37.26 8.14 48.96 26m-32.65 14.02c-4.14-4.7-9.5-7.32-15.5-8.42-12.7-2.32-25.56-.86-38.34-1.17-3.39-.08-3.48 2.31-3.48 4.8.02 13.98.11 27.97-.07 41.95-.05 3.9 1.57 4.78 5.07 4.7q11.99-.26 23.97-.03c5.87.1 11.6-.4 17.16-2.43 16.97-6.17 22.43-24.33 11.19-39.4M326.7 639.43c15.46 26.56 7.15 58.26-19.75 72.27-26.48 13.8-53.85 14.1-80.45.14-18.7-9.81-26.57-26.96-28.56-47.49 11.03-2.22 21.87-1.37 32.62-1.93 2-.1 2.34 1.33 2.72 2.89 4.77 19.41 17.52 27.98 37.43 25.59 6.7-.8 13.15-2 18.95-5.58 12.95-8 12.9-24.8-.08-32.86-8.38-5.2-18.05-6.55-27.31-9.1-12.16-3.36-24.64-5.65-36.07-11.37-15.26-7.64-22.48-20.72-23.38-36.96-1.74-31.75 20.2-55.08 52.05-57.56 14.27-1.11 27.9.3 41.08 5.46 19.25 7.53 29.7 22.24 33.24 42.26.6 3.46-.35 5.19-4.35 5.22-8.15.05-16.3.52-24.44.93-2.9.15-4.58-.73-5.33-3.8-3.19-13.03-12.67-18.73-25.03-20.02-9.77-1.01-19.43.08-27.04 7.42-8.9 8.59-7.7 21.28 2.58 28.27 8.59 5.83 18.6 7.87 28.4 10.47 10.27 2.72 20.7 4.83 30.68 8.67 8.98 3.45 16.32 8.9 22.04 17.08m153.55-30.54 40.21 107c-1.05 1.98-2.52 1.5-3.77 1.5-9.16.02-18.33-.12-27.49.06-3.5.07-5.42-.95-6.6-4.46-3.5-10.4-7.46-20.65-10.98-31.05-1.14-3.36-2.76-4.67-6.44-4.64q-30.98.26-61.97.02c-3.58-.02-5.37 1.1-6.5 4.57-3.36 10.28-7.16 20.41-10.56 30.68-1.17 3.53-2.99 4.99-6.83 4.9-10.1-.24-20.22-.09-30.58-.09.13-5.36 2.47-9.3 4-13.43 19.58-52.36 39.3-104.66 58.83-157.04 1.45-3.88 3.23-5.51 7.5-5.38q15.25.45 30.49.01c4.19-.12 6.21 1.32 7.64 5.24 7.5 20.63 15.26 41.17 23.05 62.1m-26.69 23.9-19.15-54.89-1.56.25-23.53 67.1c.81.72 1.06 1.13 1.3 1.13q22.18.2 44.37.28c2.68 0 2.93-1.59 2.14-3.73a345 345 0 0 1-3.57-10.13m118.24-.45c5.72 16.5 11.28 32.63 17.01 49.23 2.53-1.88 2.89-4.1 3.55-6 14.78-42.78 29.57-85.56 44.13-128.42 1.43-4.2 3.36-5.76 7.77-5.6 8.83.3 17.67.06 26.5.1 1.61.01 3.33-.39 5.32 1.13-3.18 8.35-6.45 16.85-9.66 25.37-18.02 47.81-36.08 95.6-53.95 143.48-1.58 4.24-3.47 6.06-8.2 5.88-9.98-.39-20-.28-29.99-.05-4.04.1-6.16-1-7.68-5.1-19.87-53.53-39.95-106.97-59.93-160.45-1.15-3.07-3.07-5.94-2.9-10.27h15.81c5.5 0 11 .11 16.5-.04 3.07-.08 4.7.84 5.78 4.02 9.81 28.83 19.83 57.58 29.94 86.72m-247.72 148.5c3.4 3.32 3.82 7.38 4 11.34.27 5.66.08 11.33.1 17 .01 2.44-.56 4.13-3.58 4.2-3.22.07-3.95-1.55-3.91-4.33q.12-8-.04-16c-.07-4.1-1.14-7.82-5.96-8.44-3.89-.5-7.1 3.14-7.4 8.35-.3 5.32-.26 10.65-.37 15.98-.05 2.26-.13 4.38-3.34 4.42-3.38.04-3.69-2.09-3.7-4.62-.03-5.33.01-10.67-.15-16-.15-5.08-2.61-8.2-6.19-8.24-3.63-.02-6.95 3.59-7.16 8.26-.22 5.16-.1 10.33-.12 15.5-.02 2.55.17 5.04-3.66 5.12-3.7.08-3.94-2.05-3.93-4.81.05-8.5-.04-17 .04-25.5.05-4.35 2.24-5.68 5.98-3.5 1.06.6 1.61 1.41 2.92.6 6.32-3.88 12.04-2.4 17.41 2.42 5.89-4.9 12.06-6.5 19.06-1.75m157.25 74.46c.41 6.03-.58 11.04-5.6 14.51-2.2 1.52-.83 3.3.01 4.83 2.69 4.91 5.47 9.77 8.43 15.02-5.11 1.18-9 1.67-11.25-3.78-1.52-3.66-3.81-7-5.84-10.45-.93-1.59-2.03-2.86-4.2-3.1-5.43-.6-6.5.21-6.54 5.66-.02 2.83-.1 5.66 0 8.49.09 2.7-.94 3.93-3.78 3.9-2.71-.04-3.91-1.05-3.9-3.84q.09-19.97 0-39.94c-.02-2.67.88-4 3.73-3.95 5.32.1 10.66-.16 15.98.08 7.21.33 11.26 4.28 12.96 12.56m-10.75-4.53c-2.64-1.9-5.68-1.45-8.63-1.43-1.76.02-4.4-.7-4.98 1.17a24 24 0 0 0-.18 13.2c.91 3.48 4.84 1.64 7.45 1.9 3.75.39 7.12-.89 8.72-4.39 1.58-3.47 1.42-7.1-2.38-10.45m221.5-41.09c-.1-6.3-.17-12.13-.27-17.96-.07-3.78-1.71-6.7-5.63-7.08-3.85-.38-6.14 2.18-7.16 5.71-1.47 5.06-.43 10.27-.71 15.4-.08 1.5-.06 3-.06 4.5-.02 2.4-1.4 3.11-3.57 3.07-2.13-.05-2.99-1.12-3-3.12 0-4.83.03-9.67-.05-14.5-.13-6.78-2.88-11.15-6.9-11.16-4.34-.02-7.28 4.47-7.37 11.32a841 841 0 0 0-.04 14c.01 2.16-.7 3.47-3.14 3.47-2.17 0-3.54-.63-3.54-3.08.02-10.29.01-20.59.01-30.66 3.02-1.72 5.03-.7 6.73 1.57 6.63-4.66 12.9-4.2 18.87 1.2 3.05-1.9 5.9-3.94 9.48-4.39 7.4-.93 13.06 3.82 13.5 11.94.34 6.48.1 13 .08 19.5 0 1.88-.06 3.75-2.7 3.9-2.38.14-4.4-.12-4.53-3.63m-157.71-23.88c3.09 8.65 6.08 16.92 9.03 25.2.16.44.02.98.02 1.46-6.05 1.9-7.2 1.57-8.94-4.45-1.5-5.17-4.22-7.6-9.66-6.67-.96.16-1.99.01-2.98 0-8.41-.03-8.68-.12-11.3 7.75-1.53 4.6-4.2 4.87-8.2 3.67-.52-3 1.05-5.51 1.93-8.05 3.97-11.45 8.25-22.8 12.26-34.23 1.04-2.95 2.24-4.77 5.85-4.85 3.76-.08 5.33 1.64 6.41 4.82 1.7 5.03 3.64 9.99 5.58 15.35m-15.49-.51c-.55 2.91-3.83 5.89-1.37 8.61 1.86 2.05 5.34.9 8.1.58 1.26-.15 2.96-.71 2.6-2.39-1.05-5.02-2.41-9.96-5.2-14.66-2.83 2.28-2.87 4.94-4.13 7.86m-304.85-12.7c-2.84 1.53-4.73 3.5-4.26 6.49.47 2.98 2.99 4.3 5.6 5.15 3.94 1.3 8.05 2.14 11.88 3.7 6.12 2.49 8.45 6.57 8.05 12.92a13.5 13.5 0 0 1-10 12.33c-11.71 3.4-21.68-1.2-24.02-11.1-.11-.47-.01-.98-.01-1.7 3.63-1.38 6.44-1.2 8.59 2.8 1.79 3.34 5.23 4.5 8.95 4.42 4.56-.1 8.45-3.1 8.72-6.75.32-4.4-2.84-6.1-6.28-7.26-3.3-1.12-6.75-1.8-10.04-2.94-6.24-2.16-9.54-6.55-9.38-12.11.17-6.1 4.04-10.74 10.4-12.5 10.8-2.98 20.5 1.45 22.67 10.39.1.45.01.96.01 1.74-3.16 1.23-5.82 1.67-8.03-1.9-2.95-4.8-7.7-4.57-12.85-3.68m-13.68 71.9c4.65-3.22 7.52-2.4 9.2 2.42 3.07 8.78 6 17.61 9.1 26.39.64 1.82.99 3.87 3.23 5.7 2.98-8.32 5.88-16.36 8.74-24.41.78-2.2 1.63-4.38 2.18-6.63 1.22-4.95 4.1-6.44 8.93-4.63.16 3.15-1.6 5.72-2.55 8.48-4.04 11.62-8.28 23.17-12.27 34.8-.97 2.83-2.48 3.92-5.45 3.85-2.93-.07-4.91-.58-6.03-3.81-4.86-13.97-9.98-27.85-15.08-42.16m302.75 40.44c3.42.05 6-.89 7.72-3.49 1.86-2.78 4.2-2.84 6.88-1.47-.12 5.46-4 9.68-10.11 11.08-6.56 1.5-14-.99-17.5-5.86-4.4-6.1-4.63-16.27-.52-22.7 3.56-5.6 9.76-8.1 16.95-6.85 7.56 1.3 13.33 9.13 12.53 16.9-.26 2.54-2 2.74-3.93 2.75-5.16.02-10.32-.05-15.48.05-1.72.03-4.08-.86-4.93 1.28-.9 2.26.8 4.1 2.23 5.73 1.5 1.72 3.48 2.5 6.16 2.58m7.93-17.15c-1.06-4.59-4.08-6.8-8.63-6.3-4.07.43-6.88 2.65-7.4 7.77 5.54.16 10.77 1.66 16.03-1.47m-247.67-88.59c6.7 3.24 8.85 8.63 8.99 15.28.05 2.8-1.1 3.87-3.84 3.82-5.33-.1-10.66-.06-16 0-1.42.01-3.22-.4-3.88 1.42-.56 1.54.33 2.93 1.15 4.19a8.63 8.63 0 0 0 14.08.72c2.28-2.82 4.52-3.58 8.15-2.12-.5 4.68-3.1 7.87-7.12 9.93-6.6 3.36-15.06 1.9-19.82-3.2-5.21-5.62-6.12-16.14-2-23.43 3.52-6.25 10.37-9 18-7.23.64.15 1.29.3 2.3.62m-13.61 9.03c-.66 1.54-2.62 3.78.58 4.17 4.83.6 9.78.61 14.74-.13-2.21-8.78-8.52-10.49-15.32-4.04m419.18 69.62c4.92 3.26 6.17 8.03 7.02 13.06.5 2.95-.51 4.44-3.64 4.4-5.5-.04-11-.09-16.48.02-4.52.09-5.37 1.7-3.1 5.5a9.04 9.04 0 0 0 14.17 1.74c.7-.7 1.14-1.68 1.87-2.33 1.7-1.5 3.82-1.64 5.54-.44 1.9 1.33.4 3.07-.34 4.42-4.14 7.65-16.46 9.77-23.68 4.14-7.02-5.47-8.97-17.6-4.09-25.47 4.58-7.4 13.4-9.46 22.73-5.04M652.9 869.5c5.05.13 10.1.5 15.17-.23-.97-5.69-3.62-8.1-8.14-7.92-4.43.18-7.19 3-7.03 8.15m-92.95-13.8c7.31 2.43 10.79 7.37 11.4 14.57.29 3.54-.84 5.26-4.7 5.08-5-.23-10-.08-14.99-.02-1.43.02-3.22-.44-4.01 1.26-.78 1.68.09 3.24 1.03 4.65 3.28 4.87 10.46 5.22 14.6.38 2.23-2.62 4.43-3.08 7.66-1.66-.82 5.61-3.99 9.02-9.19 10.52-6.69 1.94-12.97 1.24-17.91-4.12-5.18-5.6-6.09-15.4-2.42-22.47 3.43-6.63 9.2-9.26 18.53-8.2m-6.22 13.97c3.36-.3 6.86.65 10.17-.7-1.27-5.39-4.17-8.05-8.47-7.54-4.32.51-7.27 2.7-7.65 7.34 1.75 1.35 3.47.7 5.95.9m169.53-85.1c-3.9-.54-6.88.15-9.16 3.27-1.8 2.46-4.38 1.65-6.8.96.54-6.81 7.5-11.8 15.09-10.92 8.31.96 11.48 3.9 12.17 12.25.49 5.96.37 11.97.4 17.96.01 1.84.92 4.26-1.8 5.07-2.38.73-4.5.21-5.51-2.48-5.22 3.28-10.36 4.68-15.95 2.3-3.65-1.55-5.89-4.1-6.07-8.31-.2-4.42 1.2-7.8 5.28-9.88 3.5-1.78 7.34-1.95 11.1-2.63 1.9-.34 4.83.88 5.36-2.24.46-2.7-1.45-4.23-4.1-5.35m.97 21.3c2.12-2.01 4.46-4.59 2.82-7.29-1.53-2.53-4.8-1-7.35-.55-3.6.65-7.25 1.45-6.65 6.27.4 3.21 4.44 4.29 9.27 2.75.46-.14.87-.47 1.91-1.18m-466.98 85.48c-9.7-1.94-14.4-7.22-15.36-16.79-.77-7.49 3.9-15.37 10.68-18.04 10.68-4.2 21.15 2.59 21.75 13.99.18 3.36-.93 4.9-4.48 4.82-6.47-.16-12.95-.04-19.7-.04-.26 4.57 1.44 7.64 5.22 8.97 3.96 1.38 8.17 1.29 10.8-2.63 1.94-2.92 4.04-2.98 6.76-1.77.32 7.22-5.2 11.36-15.67 11.49m6.53-21.7c3.5-.22 3.2-2.2 1.92-4.4-1.88-3.23-4.87-4.6-8.42-3.68-3.58.94-6.49 2.9-6.79 7.41 4.28 1.27 8.4.43 13.3.66m85.73-77.16c.9-.13 1.43-.13 1.9-.28 1.8-.6 4.98.8 4.83-2.7-.12-2.98-2.1-4.8-5.18-5.1-2.94-.3-5.91-.02-7.62 2.64-2.05 3.2-4.51 2.56-7.27 1.76.71-7.06 7.67-11.89 15.23-10.8 9.02 1.3 11.91 4.68 11.92 13.93 0 5.83.08 11.65-.04 17.48-.08 3.89-2.37 5.35-5.29 3.02-1.84-1.48-2.8-.87-4.32-.2-3.88 1.7-7.79 2.62-12.08 1.16-4.7-1.6-7.2-4.7-7.28-9.56-.08-4.63 2.1-7.86 6.53-9.61a25 25 0 0 1 8.67-1.74m4.14 12.8c1.62-1.9 3.67-4.18 2.38-6.52-1.41-2.6-4.42-1.2-6.8-.92-.49.06-.96.24-1.45.33-3.49.62-6.68 1.8-6.08 6.15.4 2.9 4.97 4.3 8.85 2.96.91-.31 1.7-1 3.1-2m256.78-16.48c4.48-9.82 14.73-13.6 23.77-9.1 8.76 4.36 11.9 16.5 6.73 26.02-4.36 8.03-15.16 10.94-23.41 6.3-6.94-3.89-9.73-12.72-7.09-23.22m25.31 5.13c-1.24-6.3-5.85-10.26-10.72-9.23-5.43 1.15-9.37 7.02-8.62 12.83.75 5.7 5.2 10.22 9.9 10.04 5.41-.2 9.22-4.71 9.55-11.32.02-.5-.03-1-.11-2.32m-52.94 77.53c3.83-1.55 7.44-1.9 11.14-1.83 1.72.03 4.1.57 4.42-2a5 5 0 0 0-2.99-5.3c-3.32-1.59-6.45-1.36-9.28 1.1-.87.77-1.48 1.97-2.47 2.44-1.67.8-3.77 1.1-5.19-.25-1.51-1.43-.23-3.12.62-4.5 3.02-4.85 11.37-7.23 18.05-5.2 5.69 1.71 8.19 5.35 8.22 12.12.03 7.14 0 14.28 0 21.44-2.87 1.5-4.97 1.18-6.4-1.48-10.82 4.97-18.5 4.09-21.79-2.4-2.8-5.51-.94-10.42 5.67-14.14m2 5.8c-2.41 4.67-1.01 7.4 3.94 7.72 4.61.28 7.53-1.87 9.18-6.11 1.2-3.04.33-4.69-2.93-4.34s-6.66.42-10.18 2.74m-227 10.01c-8.58-9.77-7.55-23.82 1.85-29.42 7.13-4.24 16.82-3.05 21.96 2.69 5.97 6.67 6.25 17.57.63 24.86-4.64 6-13.76 7.74-21.23 3.99-1.03-.52-1.96-1.24-3.21-2.12m1.98-9.87c1.78 4.64 4.87 7.61 10.1 7.17 4.47-.38 7.23-3.26 8.52-7.34 1.6-5.08-.24-10.89-3.94-13.54-4.44-3.19-11.06-1.6-13.76 3.26-1.72 3.08-1.58 6.37-.92 10.45m-30.71 9.47c-5.84 5.5-12.26 5.46-18.89 3-4.37-1.62-7-4.75-7.19-9.92 3.46-.6 6.45-1.61 8.48 2.7 1.18 2.47 4.2 3.22 7 2.9 2.39-.3 4.67-1.2 5.16-3.93.55-3.04-1.75-4.1-4.03-4.81-2.85-.89-5.84-1.34-8.66-2.3-4.3-1.47-7.23-4.42-7.13-9.17.1-4.94 3.12-8 7.76-9.2 4.77-1.23 9.6-1.38 14.04 1.22 3.04 1.8 4.84 4.44 4.51 8.37-2.93 1.08-5.4 1.17-7.4-1.78-1.15-1.72-3-2.55-5.16-2.57-2.64-.03-5.38.28-5.97 3.28-.61 3.12 2.27 3.65 4.45 4.33 2.37.75 4.86 1.16 7.22 1.93 7.74 2.52 9.91 8.22 5.8 15.95m301-2.55c3.89-3.26 2.16-5.53-1.1-6.92-3.02-1.3-6.33-1.92-9.52-2.82-4.76-1.33-7.48-4.48-7.38-9.4.1-4.98 3.2-8 7.84-9.1 4.93-1.17 10-1.47 14.43 1.65 2.66 1.88 4.37 4.46 3.78 8.12-3.11 1-5.58.85-7.48-2.1a5.3 5.3 0 0 0-4.25-2.32c-2.73-.15-5.83-.27-6.67 2.94-.9 3.45 2.34 3.87 4.63 4.61 2.68.88 5.48 1.38 8.14 2.33 4.33 1.54 6.91 4.58 6.8 9.37-.11 4.89-2.67 8.03-7.21 9.71-8.33 3.08-21.37-.95-20.7-10.5 2.82-.96 5.23-1.76 7.49 1.79 2.52 3.96 6.45 5.03 11.2 2.64m-207.8-18.82c.03 6.76.12 13.09.01 19.4-.03 2.27.96 5.34-3.15 5.41-4.44.09-3.4-3.2-3.47-5.64-.13-4.32.05-8.65-.07-12.97-.18-6.58-2.9-10.23-7.27-10.04-4.84.2-7.95 4.02-8.1 10.14-.1 4.65-.08 9.31-.07 13.97 0 2.53-.22 4.6-3.64 4.62-3.23.02-3.88-1.66-3.86-4.39q.08-13.22.02-26.45c-.02-4.02 2.74-4.99 5.13-3.15 2.58 2 4.14.8 6.22 0 8.79-3.37 15.72-.06 18.25 9.1m-51.6-69.5c0-4.33-.1-8.16.05-11.98.08-1.82-.93-4.31 1.8-5.1 2.2-.64 4.33-.32 5.34 2.3 4.33-2.1 8.26-4.2 13.05-2.9 5.98 1.62 9.01 4.62 9.28 10.72.3 6.81.08 13.65.12 20.47 0 2.28-.55 3.83-3.33 3.83-2.75 0-3.35-1.52-3.34-3.82.02-5 .12-9.99-.07-14.97-.24-6.41-3.19-10.24-7.42-10.05-4.78.22-7.78 4.08-7.9 10.28-.07 4.5-.03 8.98-.06 13.48-.02 2.55.15 5.05-3.68 5.12-3.73.06-3.87-2.2-3.84-4.9.05-4 0-7.99 0-12.48m182.58 15.97c-4.1-3.13-5.14-7.43-5.41-11.74-.37-5.97-.05-11.98-.13-17.98-.04-2.96 1.57-3.58 4.12-3.58 2.65-.01 3.49 1.24 3.46 3.68q-.1 8 .05 15.99c.08 4.23 1.08 8.13 5.96 9.13 3.96.82 7.51-2.45 8.74-7.77 1.25-5.42.36-10.94.56-16.42.1-2.49.05-4.7 3.58-4.58 3.32.1 3.13 2.32 3.13 4.5.02 9.8 0 19.6 0 30.9-6.5-3.68-11.89.22-17.62.05-2.06-.06-4.08-1.27-6.44-2.18m246.66 2.29c-11.34-1.47-17-7.56-17.2-17.98-.17-9.67 5.65-16.77 14.96-18.24 6.8-1.08 13.83 2.66 15.9 8.42.57 1.6 1.41 3.46-.56 4.36-1.76.8-3.7.91-5.4-.97-5.4-6-8.46-6.76-12.92-3.6-4.37 3.12-5.86 10.52-3.18 15.87 3.25 6.52 10.65 7.48 14.9 1.6 2.02-2.8 4.01-3.63 7.06-2.51 1.42 6.87-2.68 10.92-13.56 13.05M448.9 801.34c-.28-4.9-.7-9.38 1.08-13.69 2.62-6.31 9.79-10.6 16.44-9.76 8.12 1.03 12.27 4.9 13.25 12.58-3.13 1.3-5.5 1.41-7.77-2.1-3.42-5.27-10.11-5.22-13.89-.32-3.44 4.46-3.05 12.6.79 16.67 3.82 4.05 10.05 4 12.85-.72 2.13-3.6 4.5-3.77 7.78-2.73-.1 7.4-3.74 11.24-11.9 12.76-8.06 1.5-15.08-3.14-18.63-12.69m305.06 3.49c1.5 2.03 3.4 2 5.21 2.1 2.37.1 3.14 1.4 3.02 3.6-.11 2.16-1.4 2.64-3.3 2.84-8.57.95-12.11-1.77-12.74-10.4-.32-4.47-.14-8.98-.14-13.47 0-2.4-.5-4.28-3.4-4.53q-2.9-.25-2.89-3.34c.02-2.17 1.16-2.95 3.11-2.97 2.78-.03 3.16-1.9 3.14-4.08-.01-2.67.17-4.96 3.91-4.91 3.55.05 3.62 2.28 3.43 4.7-.25 3.32 1.26 4.47 4.41 4.32 1.97-.1 4.19-.24 4.26 2.8.07 3.06-2 3.56-4.3 3.52-3.2-.05-4.5 1.36-4.35 4.54.23 4.97.28 9.96.63 15.28m-342.94-18.76a9 9 0 0 0-3.06-1.15c-1.97-.26-2.98-1.21-3-3.25 0-2.12 1.1-3.05 3.1-3 2.91.06 3.7-1.6 3.59-4.15-.13-2.68.03-4.97 3.81-4.85 3.98.12 3.4 2.77 3.4 5.24v2.77c1.82 1.5 3.73.84 5.5.99 1.72.14 2.83.68 2.9 2.63.05 1.87-.36 3.56-2.54 3.47-5.54-.25-6.17 3.07-5.83 7.4.16 2.15.2 4.35-.06 6.48-.63 4.97-.05 8.78 6.38 8.33 1.85-.12 2.66 1.12 2.66 2.87 0 1.82-.49 3.08-2.65 3.51-8.72 1.73-13.42-2.04-13.57-11.03a333 333 0 0 0-.63-16.26m194 22.3c-.1 4.93-6.66 6.86-11.48 3.8-2.79-1.76-3.88-4.43-3.88-7.64.01-5-.08-10 .02-15 .05-2.68-.5-4.57-3.68-4.7-1.96-.07-2.97-1.22-2.96-3.26 0-2.2 1.26-2.93 3.19-2.91 2.62.02 3.63-1.44 3.39-3.82-.48-4.72 1.74-5.95 5.94-4.8 1.16 1.07.91 2.5.77 3.76-.42 3.7 1.08 5.23 4.8 4.9 2.04-.17 4.06-.06 4.16 2.93.1 3.22-1.97 3.5-4.27 3.38-3.8-.19-4.94 1.7-4.7 5.22.2 3.15.15 6.33 0 9.5-.2 4.53 1.1 7.53 6.37 7.27.7-.04 1.45.61 2.33 1.37M532.35 862c-.02 8.67-.06 16.83-.04 25 0 2.26-.91 3.38-3.27 3.32-1.88-.05-3.33-.47-3.37-2.7-.32-15.77-.98-31.54.16-47.23 6.15-1.12 6.46-.91 6.5 4.61.05 5.5.02 11 .02 17m-244.31 26.7c-5.67 2.84-7.22 2.01-7.26-3.5-.06-7.82-.09-15.64 0-23.46.03-2.02-.9-4.57 1.8-5.7 2.54-1.06 4.33.57 5.8 2.28 2.92-.97 5.18-2.9 8.23-2.7 2 .14 3.62.32 3.68 2.9.06 2.33-.51 3.55-3.2 3.92-6.61.9-8.67 3.53-8.77 10.33-.07 5.16-.1 10.32-.28 15.93m400.59.83c-4.42 1.65-6.13.25-6.03-4.14.18-8.31-.01-16.63.06-24.95.01-1.67-.71-3.86 1.9-4.51 2.42-.6 3.69.68 4.33 3.09 3.17-1.44 5.8-3.61 9.36-3.41 2.4.13 3.73.85 3.81 3.45.08 2.38-1.02 3.32-3.27 3.29-7.16-.1-9.15 4.92-9.42 10.4-.26 5.47.45 10.97-.74 16.78m-350.86-7.6c0-7.63.03-14.76 0-21.9-.02-2.42.4-4.2 3.45-4.26 3.03-.05 4.12 1.29 4.1 4.2-.09 8.46-.04 16.92-.04 25.38 0 2.58.13 5.04-3.68 5.04-3.71 0-3.82-2.35-3.81-4.99zm437.09-102.49c.27 11.26.27 22.2.27 33.09-5.87 1.45-6.44 1.09-6.46-4.28-.04-8.16.17-16.32-.1-24.47-.14-4.78 1.83-5.95 6.3-4.34m-334.24 33.09c-4.38 1.65-6.13.32-6.03-4.1.2-8.45.06-16.91.06-25.37 0-2.25-.01-4.33 3.24-4.37 3.13-.05 3.5 1.77 3.44 4.17-.22 9.77.5 19.56-.7 29.67m332.24-39.28c-3.47.08-5.07-1.42-5.1-4.46-.03-2.14 1.27-3.41 3.2-3.89 2.16-.54 4.12.15 4.9 2.31.97 2.63.45 4.93-3 6.04M435 772.04c-1.76-2.56-1.77-4.7.49-6.4 1.79-1.34 3.7-1.25 5.44.22a3.9 3.9 0 0 1 .98 4.95c-1.49 2.98-3.91 3.16-6.91 1.23m-93.85 78.23c-3.2-.69-4.03-2.75-3.73-5.23.24-2.02 1.72-3.1 3.76-3.28 2.04-.19 3.69.65 4.37 2.5 1.36 3.66-.25 5.62-4.4 6.01"/>
    <path fill="#fff" d="M465.18 373c-9.62 12.66-23.11 17.57-36.06 13.35-13.74-4.48-23.13-17.6-23.38-32.66-.27-17.19 14.33-33.32 31.55-33.82 18.94-.56 31.52 14.3 33.2 29.51.92 8.49-.84 16.1-5.31 23.61m-133.25-49.13c12.78 7.79 18.55 19.22 17.17 33.41-1.31 13.57-8.7 23.56-21.8 28.55-18.68 7.13-40.44-6.78-42.58-27.1-2.07-19.55 9.08-34.88 28.1-38.53 6.68-1.28 12.83.68 19.1 3.67m366.12 6.22c-8.57-7.04-11.54-16.45-12.9-26.53-1.4-10.39-.63-20.63 4-30.19 4.75-9.8 12.31-15.9 23.57-16.7 12.32-.9 21.42 4.27 26.93 15.07 8.45 16.58 8.12 33.5-.82 49.65-8.27 14.94-25.9 18.42-40.78 8.7m5.2-46.26c-2.73 9.05-2.7 18.04 1.06 26.79 2.08 4.85 5.59 8.48 11.2 8.7 4.55.17 9.15-4.39 11.02-10.26q3.82-11.93.77-24.09c-1.77-7.06-6.28-12.36-11.4-12.4-6.88-.06-10.11 4.83-12.66 11.26m104 51.01c-17.94 2.17-28.92-4.87-33.92-21.79-3.99-13.5-3.78-26.9 2.24-39.9 4.59-9.91 12.2-15.62 23.17-16.45 12.26-.94 21.69 4.1 27.1 14.95 8.33 16.75 7.87 33.76-1.1 50.25-3.66 6.71-9.5 11.05-17.49 12.94m-19.22-34.97c.32 5.22 1.23 10.28 4.56 14.53 5.4 6.86 13.95 6.56 18.03-1.1 5.71-10.74 5.75-22.03 1.1-33.2-1.85-4.42-5.35-7.53-10.33-7.53-5.25 0-8.52 3.58-10.57 7.99-2.7 5.82-3.48 12.08-2.8 19.31m-155.34 21.13v-41.2c-5.81.6-9.86 4.44-15.38 5.31-1.14-5.1-.62-10-.4-14.88.06-1.48 1.55-2.07 2.75-2.64 6.45-3.09 12.93-6.13 19.38-9.22 1.58-.75 3.24-.56 4.89-.69 3.11-.25 4.49.87 4.47 4.22q-.14 33.96 0 67.92c0 3.12-.95 4.54-4.27 4.49-13.68-.2-11.16 1.33-11.43-10.81-.02-.67 0-1.34 0-2.5m37.4-5.56c7.43.81 11.15 5.22 10.16 11.54-.77 5-5.83 8.8-10.81 8.15a9.85 9.85 0 0 1-8.62-11.8c.88-4.84 3.99-7.43 9.27-7.9m84.92 18.98c-6.15-3.43-8.06-9.1-5.15-14.22 2.66-4.7 9.28-6.34 13.89-3.44a10 10 0 0 1 2.89 13.96c-2.72 3.95-6.54 5.37-11.63 3.7"/>
</svg>
